<svg width="14" height="15" viewBox="0 0 14 15" fill="none" xmlns="http://www.w3.org/2000/svg">
<path fill-rule="evenodd" clip-rule="evenodd" d="M7 5.77144C7.79565 5.77144 8.55871 5.46741 9.12132 4.92623C9.68393 4.38505 10 3.65106 10 2.88572C10 2.12038 9.68393 1.38638 9.12132 0.845207C8.55871 0.30403 7.79565 0 7 0C6.20435 0 5.44129 0.30403 4.87868 0.845207C4.31607 1.38638 4 2.12038 4 2.88572C4 3.65106 4.31607 4.38505 4.87868 4.92623C5.44129 5.46741 6.20435 5.77144 7 5.77144ZM0 14.4286C-1.36979e-08 13.5444 0.18106 12.6688 0.532843 11.8518C0.884626 11.0349 1.40024 10.2926 2.05025 9.6674C2.70026 9.04215 3.47194 8.54618 4.32122 8.20779C5.1705 7.86941 6.08075 7.69525 7 7.69525C7.91925 7.69525 8.8295 7.86941 9.67878 8.20779C10.5281 8.54618 11.2997 9.04215 11.9497 9.6674C12.5998 10.2926 13.1154 11.0349 13.4672 11.8518C13.8189 12.6688 14 13.5444 14 14.4286H0Z" fill="#8E8E8E"/>
</svg>
