<svg width="11" height="15" viewBox="0 0 11 15" fill="none" xmlns="http://www.w3.org/2000/svg">
<path d="M8.68684 13.125C6.6563 13.125 4.88372 11.991 3.93095 10.3125H8.7083V8.43747H3.26962C3.21915 8.13185 3.18681 7.82002 3.18681 7.49997C3.18681 7.17995 3.21915 6.86808 3.26962 6.56246H8.7083V4.68745H3.93095C4.88369 3.00894 6.65627 1.87497 8.68684 1.87497C9.36003 1.87497 10.0269 2.00408 10.6688 2.25858L11 0.509932C10.146 0.17167 9.58737 0 8.68684 0C5.61604 0 2.98403 1.9425 1.89342 4.68749H0V6.5625H1.4172C1.37943 6.87035 1.35353 7.18185 1.35353 7.5C1.35353 7.81815 1.37943 8.12965 1.4172 8.4375H0V10.3125H1.89342C2.98403 13.0575 5.61604 15 8.68684 15C9.58741 15 10.146 14.8283 11 14.4901L10.6688 12.7414C10.0269 12.9959 9.36003 13.125 8.68684 13.125Z" fill="white"/>
</svg>
