<svg width="10" height="14" viewBox="0 0 10 14" fill="none" xmlns="http://www.w3.org/2000/svg">
<path d="M5.96383 0.17688C3.36001 1.78431 3.67292 6.31324 3.67292 6.31324C3.67292 6.31324 2.52748 5.90414 2.52748 4.06325C1.16088 4.91228 0.236572 6.5442 0.236572 8.35869C0.236572 11.0699 2.28792 13.2678 4.81839 13.2678C7.34886 13.2678 9.40021 11.0699 9.40021 8.35869C9.40018 4.37007 5.96383 3.55187 5.96383 0.17688ZM5.22085 11.5763C4.30015 11.8222 3.36764 11.2219 3.13804 10.2354C2.90849 9.24893 3.46877 8.24976 4.38952 8.00381C6.61238 7.41001 6.89096 6.07071 6.89096 6.07071C6.89096 6.07071 7.99942 10.834 5.22085 11.5763Z" fill="white"/>
</svg>
