<svg width="12" height="11" viewBox="0 0 12 11" fill="none" xmlns="http://www.w3.org/2000/svg">
<path d="M0.875004 10.8778H2.12501C2.60751 10.8778 3.00001 10.494 3.00001 10.0222V4.4C3.00001 3.92822 2.60751 3.54444 2.12501 3.54444H0.875004C0.392502 3.54444 0 3.92822 0 4.4V10.0222C0 10.494 0.392502 10.8778 0.875004 10.8778Z" fill="#A1A1A1"/>
<path d="M6.39053 0C5.89053 0 5.64053 0.244444 5.64053 1.46667C5.64053 2.62827 4.49002 3.56302 3.75002 4.04458V10.1009C4.55052 10.4632 6.15303 11 8.64054 11H9.44055C10.4155 11 11.2456 10.3156 11.4106 9.37689L11.9706 6.19911C12.1806 5.00133 11.2406 3.91111 10.0005 3.91111H7.64054C7.64054 3.91111 8.01554 3.17778 8.01554 1.95556C8.01554 0.488889 6.89053 0 6.39053 0Z" fill="#A1A1A1"/>
</svg>
