<svg width="115" height="20" viewBox="0 0 115 20" fill="none" xmlns="http://www.w3.org/2000/svg">
<path d="M7.61732 9.58791H15.0081V18.1593C14.2152 18.8004 13.2619 19.2674 12.1481 19.5604C11.0531 19.8535 9.96764 20 8.89159 20C7.62676 20 6.44688 19.8077 5.35194 19.4231C4.27589 19.0385 3.34143 18.4432 2.54855 17.6374C1.75566 16.8132 1.13269 15.7692 0.679612 14.5055C0.226537 13.2418 0 11.7399 0 10C0 8.18681 0.264294 6.64835 0.792881 5.38462C1.34035 4.10257 2.04828 3.06777 2.91667 2.28022C3.80394 1.47436 4.79504 0.897437 5.88997 0.549452C6.9849 0.183151 8.09871 0 9.2314 0C10.3641 0 11.3552 0.0824176 12.2047 0.247253C13.0731 0.412088 13.7621 0.586081 14.2719 0.769231L13.479 3.92857C13.007 3.74542 12.4784 3.60806 11.8932 3.51648C11.308 3.40659 10.5623 3.35165 9.65615 3.35165C8.8444 3.35165 8.09871 3.4707 7.4191 3.70879C6.73949 3.94689 6.14483 4.34066 5.63512 4.89011C5.14429 5.42125 4.75728 6.10806 4.47411 6.95055C4.20982 7.79304 4.07767 8.81868 4.07767 10.0275C4.07767 11.1813 4.20982 12.1795 4.47411 13.022C4.73841 13.8462 5.10653 14.533 5.57848 15.0824C6.05044 15.6136 6.5979 16.0073 7.22088 16.2637C7.86273 16.5201 8.54235 16.6484 9.25971 16.6484C9.75055 16.6484 10.2319 16.5934 10.7039 16.4835C11.1758 16.3553 11.5723 16.1722 11.8932 15.9341V12.3077L7.61732 11.8681V9.58791Z" fill="#DF3737"/>
<path d="M31.8958 15.3571H25.8076L24.3067 19.6154H20.4273L27.5632 0.247253H30.4233L37.5592 19.6154H33.4815L31.8958 15.3571ZM26.7987 12.3352H31.0462L29.5737 8.04945L28.9791 5.02747H28.8375L28.2428 8.07692L26.7987 12.3352Z" fill="#DF3737"/>
<path d="M41.9486 16.2637L50.3304 4.89011L51.8029 3.73626H41.9486V0.384615H55.6824V3.73626L47.2439 15.2198L45.7997 16.2637H55.6824V19.6154H41.9486V16.2637Z" fill="#DF3737"/>
<path d="M62.3953 0.384615H74.147V3.73626H66.2748V8.21429H73.439V11.5659H66.2748V16.2637H74.2885V19.6154H62.3953V0.384615Z" fill="#DF3737"/>
<path d="M95.5112 3.73626H89.7345V19.6154H85.855V3.73626H80.05V0.384615H95.5112V3.73626Z" fill="#DF3737"/>
<path d="M109.337 15.3571H103.248L101.748 19.6154H97.8681L105.004 0.247253H107.864L115 19.6154H110.922L109.337 15.3571ZM104.239 12.3352H108.487L107.015 8.04945L106.42 5.02747H106.278L105.684 8.07692L104.239 12.3352Z" fill="#DF3737"/>
</svg>
