<svg width="16" height="16" viewBox="0 0 16 16" fill="none" xmlns="http://www.w3.org/2000/svg">
<path d="M14.0541 1.95361C12.7973 0.693801 11.1262 0 9.34885 0C7.57147 0 5.90037 0.693801 4.64357 1.95361C2.49836 4.10386 2.12704 7.36898 3.52926 9.90546L0.527293 12.9145C-0.175764 13.6193 -0.175764 14.7659 0.527293 15.4706C0.867854 15.812 1.32064 16 1.8023 16C2.28396 16 2.73675 15.812 3.07731 15.4706L6.06596 12.4749C7.05571 13.0394 8.17924 13.3398 9.34885 13.3398C11.1263 13.3398 12.7973 12.6461 14.0541 11.3863C16.6486 8.78564 16.6486 4.55421 14.0541 1.95361ZM12.8762 10.2056C11.934 11.15 10.6813 11.67 9.34891 11.67C8.01648 11.67 6.76374 11.15 5.82157 10.2056C3.87666 8.25604 3.87666 5.08381 5.82157 3.13432C6.76379 2.18988 8.01648 1.6698 9.34891 1.6698C10.6813 1.6698 11.9341 2.18988 12.8762 3.13432C14.8212 5.08387 14.8212 8.25604 12.8762 10.2056Z" fill="black"/>
</svg>
