<svg width="14" height="17" viewBox="0 0 14 17" fill="none" xmlns="http://www.w3.org/2000/svg">
<path d="M12.089 5.05827L13.0949 4.04085L12.1051 3.03935L11.029 4.12776C10.046 3.42313 8.89886 2.98886 7.7 2.86748V1.41604H9.1V0H4.9V1.41604H6.3V2.86748C5.10114 2.98886 3.95401 3.42313 2.97098 4.12776L1.8949 3.03935L0.905103 4.04085L1.911 5.05827C0.972056 6.0638 0.344852 7.32548 0.106846 8.68749C-0.13116 10.0495 0.0304565 11.4522 0.571736 12.7224C1.11302 13.9925 2.01025 15.0745 3.15264 15.8347C4.29503 16.5949 5.63254 17 7 17C8.36746 17 9.70497 16.5949 10.8474 15.8347C11.9897 15.0745 12.887 13.9925 13.4283 12.7224C13.9695 11.4522 14.1312 10.0495 13.8932 8.68749C13.6551 7.32548 13.0279 6.0638 12.089 5.05827ZM7 15.5764C5.89243 15.5764 4.80972 15.2442 3.88881 14.6219C2.96789 13.9995 2.25013 13.1148 1.82628 12.0799C1.40243 11.0449 1.29153 9.906 1.50761 8.80726C1.72368 7.70852 2.25703 6.69926 3.0402 5.90711C3.82338 5.11497 4.8212 4.57551 5.9075 4.35696C6.99379 4.1384 8.11976 4.25057 9.14303 4.67928C10.1663 5.10798 11.0409 5.83397 11.6562 6.76544C12.2716 7.69691 12.6 8.79201 12.6 9.91228C12.5983 11.414 12.0078 12.8537 10.958 13.9156C9.90811 14.9775 8.4847 15.5748 7 15.5764Z" fill="#E52C2C"/>
<path d="M7 5.66415V9.91227H2.8C2.8 10.7525 3.04632 11.5738 3.50782 12.2724C3.96933 12.971 4.62528 13.5155 5.39273 13.837C6.16017 14.1586 7.00465 14.2427 7.81937 14.0788C8.63409 13.9148 9.38246 13.5103 9.96984 12.9161C10.5572 12.322 10.9572 11.5651 11.1193 10.741C11.2813 9.91698 11.1982 9.06283 10.8803 8.28658C10.5624 7.51034 10.0241 6.84688 9.33339 6.38009C8.6427 5.9133 7.83068 5.66415 7 5.66415Z" fill="#E52C2C"/>
</svg>
