<svg width="8" height="10" viewBox="0 0 8 10" fill="none" xmlns="http://www.w3.org/2000/svg">
<path d="M6.908 2.97545L7.4828 2.37697L6.9172 1.78785L6.3023 2.42809C5.74057 2.0136 5.08506 1.75815 4.4 1.68675V0.832965H5.2V0H2.8V0.832965H3.6V1.68675C2.91494 1.75815 2.25943 2.0136 1.6977 2.42809L1.0828 1.78785L0.517202 2.37697L1.092 2.97545C0.555461 3.56694 0.197058 4.3091 0.061055 5.11029C-0.0749484 5.91147 0.0174037 6.73659 0.326706 7.48374C0.636009 8.23089 1.14872 8.86735 1.80151 9.31452C2.4543 9.7617 3.2186 10 4 10C4.7814 10 5.54569 9.7617 6.19849 9.31452C6.85128 8.86735 7.36399 8.23089 7.67329 7.48374C7.9826 6.73659 8.07495 5.91147 7.93894 5.11029C7.80294 4.3091 7.44454 3.56694 6.908 2.97545ZM4 9.16261C3.3671 9.16261 2.74841 8.9672 2.22218 8.60109C1.69594 8.23498 1.28579 7.71462 1.04359 7.1058C0.801387 6.49698 0.738016 5.82706 0.861489 5.18074C0.984961 4.53442 1.28973 3.94074 1.73726 3.47477C2.18479 3.0088 2.75497 2.69148 3.37571 2.56291C3.99645 2.43435 4.63986 2.50034 5.22459 2.75252C5.80931 3.0047 6.30908 3.43175 6.6607 3.97967C7.01232 4.52759 7.2 5.17177 7.2 5.83075C7.19905 6.71411 6.8616 7.56101 6.26169 8.18564C5.66178 8.81027 4.8484 9.16162 4 9.16261Z" fill="white"/>
<path d="M4 3.33185V5.83075H1.6C1.6 6.32498 1.74076 6.80812 2.00447 7.21906C2.26819 7.63 2.64301 7.95029 3.08156 8.13942C3.5201 8.32856 4.00266 8.37805 4.46821 8.28163C4.93377 8.18521 5.36141 7.94721 5.69705 7.59773C6.0327 7.24826 6.26128 6.80299 6.35388 6.31826C6.44648 5.83352 6.39896 5.33107 6.21731 4.87446C6.03566 4.41785 5.72804 4.02758 5.33336 3.75299C4.93869 3.47841 4.47467 3.33185 4 3.33185Z" fill="white"/>
</svg>
