<svg width="10" height="17" viewBox="0 0 10 17" fill="none" xmlns="http://www.w3.org/2000/svg">
<path d="M9.99985 11.6513C10.0105 10.3064 9.43817 9.2427 8.29661 8.49155C7.41492 7.91321 6.34494 7.61152 5.31005 7.32163C3.15423 6.7145 2.52884 6.39471 2.52884 5.43701C2.52884 4.37024 4.02123 3.99068 5.29883 3.99068C6.22926 3.99068 7.29973 4.25941 7.96451 4.65768L9.28249 2.76153C8.41364 2.2383 7.22453 1.88141 6.05031 1.77063V0H3.61907V1.89479C1.45789 2.33644 0.0964661 3.64858 0.0964661 5.43701C0.0964661 6.68953 0.656746 7.68283 1.75857 8.38343C2.59659 8.9183 3.61863 9.20549 4.60591 9.48355C6.7205 10.0773 7.57919 10.4391 7.56942 11.6373L7.56937 11.6461C7.56937 12.6518 6.13468 13.0093 4.90557 13.0093C3.74452 13.0093 2.48193 12.5366 1.76624 11.8338L0 13.3858C0.906359 14.2763 2.2232 14.9059 3.61901 15.1527V17H6.05031V15.1925C8.45181 14.8731 9.99748 13.53 9.99985 11.6513Z" fill="white"/>
</svg>
